HIERARCHY
ROOT Hips
{
  OFFSET 53.8039 96.5556 -200.501
  CHANNELS 6 Xposition Yposition Zposition Zrotation Xrotation Yrotation
  JOINT RightUpLeg
  {
    OFFSET -8.9458 -8.66707 0.101652
    CHANNELS 3 Zrotation Xrotation Yrotation
    JOINT RightLeg
    {
      OFFSET 0 -44.4227 1.3727
      CHANNELS 3 Zrotation Xrotation Yrotation
      JOINT RightFoot
      {
        OFFSET 0.253549 -42.0924 -1.46059
        CHANNELS 3 Zrotation Xrotation Yrotation
        JOINT RightToes
        {
          OFFSET 0.04 -4.41509 8.4991
          CHANNELS 3 Zrotation Xrotation Yrotation
          End Site
          {
            OFFSET -0.08 -0.137448 9.77979
          }
        }
      }
    }
  }
  JOINT Spine
  {
    OFFSET 0 11.8905 0
    CHANNELS 3 Zrotation Xrotation Yrotation
    JOINT Spine1
    {
      OFFSET 0 25.6574 0.127663
      CHANNELS 3 Zrotation Xrotation Yrotation
      JOINT HEad
      {
        OFFSET 0 8.73416 0.011341
        CHANNELS 3 Zrotation Xrotation Yrotation
        End Site
        {
          OFFSET -0.29 12.7742 2.51395
        }
      }
      JOINT LeftShoulder1
      {
        OFFSET 8.99 -0.362252 -0.22
        CHANNELS 3 Zrotation Xrotation Yrotation
        JOINT LeftArm
        {
          OFFSET 10.2827 -0.00338 0.322123
          CHANNELS 3 Zrotation Xrotation Yrotation
          JOINT LeftForeArm
          {
            OFFSET 32.7669 0.099144 -1.42434
            CHANNELS 3 Zrotation Xrotation Yrotation
            JOINT LeftHand
            {
              OFFSET 27.5643 0.085362 1.02216
              CHANNELS 3 Zrotation Xrotation Yrotation
              End Site
              {
                OFFSET 16.7443 -0.6 1.50291
              }
            }
          }
        }
      }
      JOINT RightShoulder
      {
        OFFSET -8.99 -0.362252 -0.22
        CHANNELS 3 Zrotation Xrotation Yrotation
        JOINT RightArm
        {
          OFFSET -10.2827 -0.00338 0.322123
          CHANNELS 3 Zrotation Xrotation Yrotation
          JOINT RightForeArm
          {
            OFFSET -32.8971 0.099144 -1.42434
            CHANNELS 3 Zrotation Xrotation Yrotation
            JOINT RightHand
            {
              OFFSET -27.4921 0.085362 1.02216
              CHANNELS 3 Zrotation Xrotation Yrotation
              End Site
              {
                OFFSET -16.6312 -0.6 1.50291
              }
            }
          }
        }
      }
    }
  }
  JOINT LeftUpLeg
  {
    OFFSET 8.9458 -8.66707 0.101652
    CHANNELS 3 Zrotation Xrotation Yrotation
    JOINT LeftLeg
    {
      OFFSET 0 -44.4227 1.3727
      CHANNELS 3 Zrotation Xrotation Yrotation
      JOINT LeftFoot
      {
        OFFSET -0.253549 -42.0924 -1.46059
        CHANNELS 3 Zrotation Xrotation Yrotation
        JOINT LeftToes
        {
          OFFSET -0.04 -4.41509 8.4991
          CHANNELS 3 Zrotation Xrotation Yrotation
          End Site
          {
            OFFSET 0.08 -0.047448 9.77979
          }
        }
      }
    }
  }
}
MOTION
Frames:	17
Frame Time:	0.0166667
54.6087 97.9186 -205.736 11.5583 4.43306 109.022 -15.3671 -25.1079 -21.3535 -50.3193 63.3871 54.7068 0.841624 1.24672 -0.0338975 0.0462048 0.000533403 0.662642 17.2022 18.0926 0.129174 0.03345 -0.01609 -0.00113081 -29.3692 31.2949 38.6012 4.77083e-015 7.95139e-016 -3.18055e-015 145.813 -68.2098 147.094 -85.8777 54.3719 -48.5142 2.63277 20.7799 -4.8193 25.7905 6.57445 12.7439 54.9427 -31.5495 66.2784 39.9707 55.0346 81.4756 -6.03963 15.793 3.37105 8.38554 -14.7503 10.0814 12.8773 33.6684 -2.23173 39.1963 -2.02244 1.7993 -1.18447e-009 1.5602e-007 -4.87132e-009 
54.212 97.2443 -203.227 10.2743 5.09944 110.527 -20.2477 -24.1886 -21.739 -58.4713 62.0028 66.8294 8.2015 1.58169 0.218158 0.0462048 0.000533403 0.662642 13.9714 18.1887 1.25016 0.0319707 -0.01609 -0.00113081 -28.5019 29.3644 36.5036 0 1.59028e-015 -0 145.14 -67.8612 147.488 -86.8236 54.4116 -49.8011 3.68896 19.9691 2.60926 28.0538 5.41115 12.3653 53.04 -29.1201 63.8561 44.4276 54.5139 80.736 -6.98039 20.9213 2.01671 10.1112 -15.6765 8.06081 7.46834 31.3313 5.12051 45.9684 -1.45577 1.83249 -1.18448e-009 1.5602e-007 -4.87131e-009 
53.8039 96.5556 -200.501 9.0448 5.66282 112.022 -23.9015 -22.1603 -20.7371 -60.0155 59.2243 73.3586 13.5512 1.88219 0.081894 0.0462048 0.000533403 0.662642 11.2873 18.0732 2.19188 0.0277717 -0.01609 -0.00113081 -28.0234 27.7905 34.6278 1.32417e-031 2.38542e-015 -3.18055e-015 135.756 -69.2833 141.517 -84.4407 56.4087 -56.7069 1.7006 22.5803 -2.80395 29.9509 4.54853 12.1335 51.9433 -27.6906 62.4221 46.8487 54.1646 80.6345 -7.07046 23.7306 1.15591 12.3673 -16.9207 7.34307 2.75053 28.7988 9.84098 52.4436 -0.639313 1.66262 -1.18446e-009 1.5602e-007 -4.87131e-009 
53.3408 95.887 -197.699 7.82747 6.05754 113.462 -26.2019 -19.1375 -18.5413 -53.6338 55.7699 74.2882 14.9737 1.69054 -0.0749888 0.0462048 0.000533403 0.662642 9.08892 17.7557 3.02397 0.0233744 -0.01609 -0.00113081 -27.781 26.4855 32.9634 1.10348e-031 1.98785e-015 -3.18055e-015 129.827 -70.3684 137.276 -82.2034 57.1714 -61.509 4.32573 19.4816 18.9265 31.3831 3.87077 11.9369 51.6802 -26.7608 61.7975 48.083 53.9686 80.6664 -7.14028 25.1486 0.90408 14.0711 -17.9355 6.80331 -0.961978 25.7596 13.1385 58.4943 0.386802 1.26399 -1.18446e-009 1.5602e-007 -4.87131e-009 
52.8499 95.1715 -194.831 6.61955 6.21191 114.8 -27.8905 -15.3809 -15.24 -42.3347 52.9178 68.1901 18.0958 1.03394 -0.0983958 0.0462048 0.000533403 0.662642 7.37019 17.2624 3.79646 0.0194214 -0.01609 -0.00113081 -27.6695 25.3525 31.482 2.20695e-032 -3.97569e-016 3.18055e-015 126.141 -71.1471 134.446 -80.6498 57.4653 -64.6191 1.89097 22.6167 1.00504 32.1744 3.32951 11.6911 52.3768 -26.0605 61.9076 48.7547 53.8904 80.5077 -6.96345 25.4846 0.671396 15.3841 -18.9993 6.4044 -3.61763 22.8477 15.1962 63.7636 1.38318 0.765911 -1.18446e-009 1.5602e-007 -4.87131e-009 
52.3322 94.5512 -192.021 5.45002 6.15248 116.003 -28.5123 -11.3186 -11.1841 -30.022 49.9896 58.1145 16.6575 0.357095 -0.043429 0.0462048 0.000533403 0.662642 6.06976 16.6679 4.52469 0.0160627 -0.01609 -0.00113081 -27.6249 24.2948 30.1756 1.59028e-015 -3.18055e-015 3.18055e-015 124.611 -71.7363 133.32 -79.6602 57.2915 -65.9818 3.92189 20.299 12.9906 32.4416 2.96123 11.351 53.799 -25.4646 62.6627 49.1924 53.8914 80.0528 -6.83066 25.5171 0.537289 16.2774 -19.9299 6.08611 -5.2593 19.8885 16.177 68.1071 2.35401 0.145692 -1.18447e-009 1.5602e-007 -4.87131e-009 
51.8445 94.0418 -189.262 4.36933 5.91604 117.054 -28.479 -7.08736 -6.43006 -18.4937 46.0451 45.9337 15.7046 -0.589223 0.0681698 0.0462048 0.000533403 0.662642 5.1562 16.0505 5.20413 0.0128738 -0.01609 -0.00113081 -27.6382 23.237 29.0513 7.95139e-016 0 3.18055e-015 124.334 -72.0713 133.423 -79.4921 57.1549 -66.3301 2.83449 21.724 1.60161 32.1425 2.74271 10.792 55.8957 -24.7474 63.9648 49.5683 53.975 79.2942 -6.63028 25.0453 0.35995 16.9763 -20.8435 5.9278 -5.55517 18.1247 14.2514 70.4573 3.01223 -0.359767 -1.18447e-009 1.5602e-007 -4.87131e-009 
51.4375 93.6667 -186.588 3.43484 5.5528 117.949 -27.688 -2.91629 -1.1608 -9.19776 41.055 33.395 13.3448 -1.62533 0.234935 0.0462048 0.000533403 0.662642 4.58608 15.4775 5.81981 0.0128738 -0.01609 -0.00113081 -27.7223 22.172 28.1534 -2.5842e-015 1.98785e-016 3.18055e-015 125.068 -72.2574 134.671 -79.8757 56.9753 -65.7175 4.33796 20.0165 8.38135 31.549 2.69913 10.0161 58.2528 -23.8589 65.5983 49.9122 54.1096 78.331 -6.5697 24.744 0.130172 17.4814 -21.6055 5.86756 -4.98354 16.9766 10.1042 71.1876 3.31615 -0.651793 -1.18446e-009 1.5602e-007 -4.87132e-009 
51.1025 93.36 -183.995 2.68467 5.12593 118.696 -27.1281 0.772008 3.69665 -2.25825 35.3313 22.304 12.4534 -2.62176 0.400891 0.0462048 0.000533403 0.662642 4.30164 14.9981 6.35756 0.0128738 -0.01609 -0.00113081 -27.8882 21.1267 27.5225 -7.95139e-016 -1.39149e-015 -6.36111e-015 126.106 -72.2668 136.532 -80.989 56.9932 -64.5552 3.82202 20.3772 1.16057 30.8818 2.86263 9.0301 60.5569 -22.8451 67.4086 50.2561 54.2756 77.2492 -6.51742 24.3252 -0.139793 17.8753 -22.3057 5.89304 -3.793 16.4152 4.295 70.47 3.28261 -0.691691 -1.18446e-009 1.5602e-007 -4.87131e-009 
50.8986 93.1378 -181.478 2.16296 4.74115 119.321 -26.6504 3.98866 8.0817 4.33724 31.0509 11.3835 8.12776 -3.54454 0.490335 0.0462048 0.000533403 0.662642 4.21397 14.6677 6.78943 0.0128738 -0.01609 -0.00113081 -28.1363 20.1519 27.1819 9.93923e-017 -5.96354e-016 -6.36111e-015 127.336 -72.1998 138.848 -82.6417 57.0417 -62.8181 4.92429 19.1599 4.93432 30.3205 3.13496 8.00251 62.5132 -21.86 69.0294 50.592 54.4657 76.2211 -6.63606 24.0137 -0.316502 18.1523 -22.9001 5.97166 -2.08719 16.4539 -2.80358 68.4928 2.95071 -0.530581 -1.18447e-009 1.5602e-007 -4.87131e-009 
50.781 92.8973 -179.084 1.86009 4.41773 119.861 -26.69 6.78689 12.1832 10.719 26.7671 1.63648 6.90513 -3.94989 0.575534 0.0462048 0.000533403 0.662642 4.29681 14.4716 7.08203 0.0128738 -0.01609 -0.00113081 -28.4928 19.318 27.1527 9.93923e-017 -3.57812e-015 -9.54166e-015 128.613 -72.0948 141.422 -84.7498 57.1832 -60.7706 4.57525 19.3376 0.310394 29.7041 3.45333 6.95203 64.3268 -20.8823 70.4213 50.896 54.6313 75.2572 -6.78378 23.6573 -0.476731 18.2125 -23.4432 5.96614 -0.563443 16.1716 -8.75331 66.1778 2.57776 -0.400029 -1.18446e-009 1.5602e-007 -4.87131e-009 
50.7005 92.6754 -176.829 1.76373 4.14033 120.341 -25.8558 8.44958 15.2428 15.5198 23.6388 -5.9237 3.36955 -4.27084 0.518575 0.0462048 0.000533403 0.662642 4.56363 14.3631 7.22761 0.0128738 -0.01609 -0.00113081 -28.9581 18.7018 27.4237 3.97569e-016 -3.27995e-015 -9.54166e-015 130.206 -72.0293 144.341 -87.0253 57.2333 -58.4512 5.27044 18.8313 2.24864 29.2354 3.69846 6.02531 65.7904 -19.9752 71.3743 51.1301 54.7587 74.3958 -7.03105 23.3664 -0.407917 18.1917 -23.9053 5.94729 0.865769 15.9106 -13.6186 63.3145 2.15011 -0.205455 -1.18446e-009 1.5602e-007 -4.87131e-009 
50.6255 92.5293 -174.731 1.84426 3.90361 120.762 -24.6428 9.2859 17.2945 18.5643 21.4921 -10.7605 2.64954 -4.24231 0.52152 0.0462048 0.000533403 0.662642 4.95737 14.3229 7.25555 0.0128738 -0.01609 -0.00113081 -29.4266 18.2632 27.9297 -1.09332e-015 3.8266e-015 1.59028e-014 132.044 -72.0938 147.483 -89.2254 57.2439 -56.1633 4.9053 19.0091 -0.564556 28.7163 4.01026 5.20921 67.16 -19.1511 72.0649 51.2567 54.8568 73.6352 -7.01156 22.9768 -0.606404 18.1088 -24.5728 5.96389 1.89785 17.3214 -15.8236 60.6494 1.68986 0.0225033 -1.18446e-009 1.5602e-007 -4.87131e-009 
50.5643 92.5197 -172.846 2.06862 3.69353 121.1 -22.7742 9.41323 18.2486 19.7855 20.7801 -13.0357 0.464079 -4.16836 0.382217 0.0462048 0.000533403 0.662642 5.42669 14.3258 7.22027 0.0128738 -0.01609 -0.00113081 -29.8761 18.019 28.6242 9.93923e-017 1.98785e-016 -3.18055e-015 134.237 -72.3115 150.893 -91.0916 57.1579 -54.013 5.36118 18.9043 0.585338 28.2023 4.33904 4.5817 68.3329 -18.483 72.4573 51.2706 54.9276 72.9509 -6.90858 22.7703 -0.716464 18.094 -25.3072 6.07457 2.53375 19.2998 -15.7241 57.9273 1.30342 0.270374 -1.18447e-009 1.5602e-007 -4.87131e-009 
50.5115 92.662 -171.181 2.39855 3.50207 121.343 -20.6477 9.04763 18.2994 19.0176 21.3623 -12.857 2.38757 -3.86568 0.419876 0.0462048 0.000533403 0.662642 5.92461 14.3518 7.15423 0.0128738 -0.01609 -0.00113081 -30.3105 17.9779 29.4792 2.38542e-015 -2.98177e-015 -6.36111e-015 136.577 -72.6195 154.336 -92.5032 57.0423 -52.2428 5.13985 19.3653 -1.11611 27.6334 4.6557 4.05336 69.3509 -17.8657 72.6895 51.1577 54.9575 72.3414 -6.5835 22.6187 -0.848847 18.2806 -26.1493 6.37242 2.74665 21.5608 -13.7102 54.9638 0.912845 0.5477 -1.18446e-009 1.5602e-007 -4.87132e-009 
50.4372 92.9494 -169.722 2.79659 3.32055 121.494 -18.2726 8.11684 17.3989 17.126 21.7693 -11.5619 3.12562 -3.87092 0.409313 0.0462048 0.000533403 0.662642 6.4182 14.3768 7.07925 0.0128738 -0.01609 -0.00113081 -30.7508 18.1479 30.4577 1.78906e-015 2.08724e-015 3.18055e-015 138.989 -72.9214 157.715 -93.4875 56.8772 -50.8052 5.49198 19.5237 -0.404488 26.9398 4.95164 3.66643 70.2494 -17.3251 72.7893 50.933 54.9551 71.824 -6.28139 22.4266 -0.871824 18.7311 -27.0526 6.90242 2.4442 23.9243 -10.2363 51.7361 0.580028 0.779227 -1.18446e-009 1.5602e-007 -4.87131e-009 
50.3945 93.3269 -168.489 3.23174 3.1357 121.561 -15.8613 6.9495 15.6637 14.6697 23.6305 -9.50531 3.6402 -3.49553 0.328246 0.0462048 0.000533403 0.662642 6.89517 14.3756 7.0057 0.0128738 -0.01609 -0.00113081 -31.2097 18.482 31.5408 -3.97569e-016 9.93923e-017 6.36111e-015 141.221 -73.1483 160.782 -94.1411 56.726 -49.745 5.36237 20.0261 -1.50047 26.1422 5.16183 3.31161 71.0218 -16.7542 72.8037 50.678 54.9259 71.3664 -5.93866 22.2938 -0.816808 19.5128 -28.0083 7.70291 1.49801 26.477 -5.66306 48.3369 0.20992 1.02814 -1.18446e-009 1.5602e-007 -4.87132e-009 
